# xmcd
#
# Track frame offsets:
#	150
#	21941
#	33295
#	61993
#	74863
#	97953
#	108675
#	123448
#	141928
#	152610
#
# Disc length: 2202 seconds
#
# Revision: 0
# Processed by: cddbd v1.5.2PL0 Copyright (c) Steve Scherf et al.
# Submitted via: audiograbber 1.83.01
#
DISCID=8d08980a
DTITLE=J3 - Full Circle
DYEAR=2002
DGENRE=Country
TTITLE0=Forthcoming
TTITLE1=Power to believe
TTITLE2=Sweet Jesus
TTITLE3=We believe
TTITLE4=Full circle
TTITLE5=Take me back
TTITLE6=Make me worthy
TTITLE7=Oh Father
TTITLE8=The Lord above
TTITLE9=Sweet baby born
EXTD=
EXTT0=
EXTT1=
EXTT2=
EXTT3=
EXTT4=
EXTT5=
EXTT6=
EXTT7=
EXTT8=
EXTT9=
PLAYORDER=
